<?xml version="1.0" encoding="UTF-8"?>
<svg id="Layer_1" xmlns="http://www.w3.org/2000/svg" version="1.1" xmlns:xlink="http://www.w3.org/1999/xlink" viewBox="0 0 68 72">
  <!-- Generator: Adobe Illustrator 29.2.1, SVG Export Plug-In . SVG Version: 2.1.0 Build 116)  -->
  <defs>
    <style>
      .st0 {
        fill: none;
      }

      .st1 {
        fill: #19b7a5;
      }

      .st2 {
        isolation: isolate;
      }

      .st3 {
        fill: #282828;
      }

      .st4 {
        fill: #575757;
      }

      .st5 {
        fill: #ababab;
      }

      .st6 {
        fill: #d2d2d2;
      }

      .st7 {
        fill: #c2c1c1;
      }

      .st8 {
        fill: #676767;
      }

      .st9 {
        clip-path: url(#clippath);
      }
    </style>
    <clipPath id="clippath">
      <rect class="st0" x="18" y="57.2" width="7.5" height="6.1"/>
    </clipPath>
  </defs>
  <polygon class="st7" points="41.4 72 36.6 45.4 10.9 36 15.8 63 41.4 72"/>
  <polygon class="st5" points="36.6 45.4 57.1 27.6 61.9 54.5 41.4 72 36.6 45.4"/>
  <polygon class="st8" points="57.1 27.6 31.8 18.6 36.6 45.4 57.1 27.6"/>
  <polygon class="st4" points="31.8 18.6 10.9 36 36.6 45.4 31.8 18.6"/>
  <polygon class="st6" points="10.9 36 3.8 23.7 24.5 6 31.8 18.6 10.9 36"/>
  <polygon class="st7" points="31.8 18.6 38.9 6.4 64.4 15.5 57.1 27.6 31.8 18.6"/>
  <polygon class="st6" points="57.1 27.8 64.2 40.3 43.4 57.7 36.6 45.3 57.1 27.8"/>
  <polygon class="st6" points="36.6 45.3 29 57.5 3.6 48.4 10.9 36.3 36.6 45.3"/>
  <polygon class="st1" points="26.6 58.5 16.4 54.9 17.8 62 27.9 65.6 26.6 58.5"/>
  <polygon class="st3" points="58.9 50.5 59.6 54.1 54.1 58.8 53.4 55.2 58.9 50.5"/>
  <polygon class="st3" points="52.4 56 53.1 59.5 47.6 64.2 46.9 60.7 52.4 56"/>
  <g class="st9">
    <image class="st2" width="470" height="368" transform="translate(-1.8 5.6) scale(1.1)" xlink:href="logo-1.png"/>
  </g>
</svg>