<?xml version="1.0" encoding="UTF-8"?>
<svg id="Layer_1" xmlns="http://www.w3.org/2000/svg" version="1.1" xmlns:xlink="http://www.w3.org/1999/xlink" viewBox="0 0 316 72">
  <!-- Generator: Adobe Illustrator 29.2.0, SVG Export Plug-In . SVG Version: 2.1.0 Build 108)  -->
  <defs>
    <style>
      .st0 {
        fill: #c2c1c1;
      }

      .st1 {
        fill: #575757;
      }

      .st2 {
        fill: #676767;
      }

      .st3 {
        fill: none;
      }

      .st4 {
        fill: #ababab;
      }

      .st5 {
        fill: #282828;
      }

      .st6 {
        fill: #606161;
      }

      .st7 {
        fill: #19b7a5;
      }

      .st8 {
        fill: #d2d2d2;
      }

      .st9 {
        clip-path: url(#clippath);
      }
    </style>
    <clipPath id="clippath">
      <rect class="st3" x="15.4" y="57.2" width="7.5" height="6.1"/>
    </clipPath>
  </defs>
  <g>
    <path class="st7" d="M70.1,23.1h17.5v5.2h-5.8v15.7h-5.8v-15.7h-5.9v-5.2Z"/>
    <path class="st7" d="M94.4,44h-5.2v-23.3h5.2v23.3ZM97.8,34c-.2-.4-.7-.6-1.4-.6s-.8,0-1.1.3c-.3.2-.5.4-.7.7-.2.3-.3.7-.3,1.2h-.8c0-1.1.2-2.1.5-3,.3-.9.9-1.6,1.6-2.1.7-.5,1.7-.8,2.9-.8s2.1.2,2.8.6c.7.4,1.2,1,1.5,1.7.3.8.4,1.7.4,2.8v9.1h-5.2v-8.4c0-.7-.1-1.3-.4-1.7Z"/>
    <path class="st7" d="M107.1,23.4c.6-.5,1.2-.7,2-.7s1.5.2,2.1.7c.6.5.9,1.1.9,1.9s-.3,1.4-.9,1.9c-.6.5-1.3.7-2.1.7s-1.5-.2-2-.7c-.6-.5-.9-1.1-.9-1.9s.3-1.4.9-1.9ZM111.6,30.3v13.7h-5v-13.7h5Z"/>
    <path class="st7" d="M123.6,34c-.2-.4-.7-.6-1.4-.6s-.8,0-1.1.2c-.3.2-.5.4-.7.7s-.3.8-.3,1.3v8.4h-5.2v-13.7h5.2v2c.4-.7.9-1.3,1.6-1.7.7-.4,1.6-.6,2.6-.6,1.8,0,3.1.5,3.8,1.4.8.9,1.1,2.2,1.1,3.8v8.9h-5.4v-8.4c0-.7-.1-1.3-.4-1.7Z"/>
    <path class="st7" d="M132.8,33c.6-1,1.4-1.8,2.4-2.3,1-.5,2-.8,3.1-.8s2.2.3,3.1.8c.9.5,1.6,1.3,2.1,2.3.5,1,.8,2.3.8,3.8s-.3,2.7-.8,3.8c-.5,1-1.2,1.8-2.1,2.4-.9.5-1.9.8-3.1.8s-2.1-.3-3.1-.8c-1-.5-1.8-1.3-2.4-2.3-.6-1-.9-2.3-.9-3.9s.3-2.9.9-3.9ZM137.1,45c0,.5.2,1,.5,1.3s.6.5,1,.7c.4.1.8.2,1.3.2s1.2-.1,1.6-.4.8-.7,1.1-1.2.4-1.2.4-1.9v-13.4h4.9v13.4c0,1.8-.3,3.3-1,4.4s-1.6,1.9-2.8,2.4c-1.2.5-2.5.7-4,.7s-3.3-.3-4.4-.8c-1.1-.5-2-1.2-2.5-2.2s-.9-2-1-3.2h5ZM137.7,38.5c.3.4.6.8,1,1s.9.3,1.4.3.9-.1,1.3-.3c.4-.2.8-.5,1.1-.9.3-.4.4-1,.4-1.6s0-.9-.2-1.3-.4-.7-.7-.9c-.3-.2-.6-.4-.9-.5-.3-.1-.7-.2-1-.2-.5,0-1,.1-1.4.3-.4.2-.8.5-1,1-.3.4-.4,1-.4,1.6s.1,1.1.4,1.6Z"/>
    <path class="st7" d="M154.1,40.2c.6.3,1.1.5,1.6.6.4.1.8.1,1,.1.4,0,.7,0,.8-.2.2-.2.3-.4.3-.7s0-.4-.2-.6c-.1-.2-.4-.3-.8-.5-.4-.2-1-.4-1.8-.7-.7-.2-1.3-.5-1.9-.8s-1.1-.8-1.4-1.3-.6-1.3-.6-2.2.2-1.6.7-2.2,1.1-1,1.9-1.3c.8-.3,1.7-.5,2.8-.5s1.6,0,2.3.3,1.4.4,2,.7,1.3.6,1.9.9l-1.5,3.4c-.6-.6-1.3-1-2.1-1.4-.8-.3-1.5-.5-2.1-.5s-.7,0-.8.2-.3.3-.3.5.1.5.4.7c.2.2.6.3,1.1.5.5.2,1.1.4,1.8.7.7.3,1.3.6,1.9.9s1.1.8,1.4,1.3c.4.5.6,1.2.6,2.1,0,1.6-.5,2.7-1.4,3.4-.9.7-2.2,1.1-4,1.1s-1.9,0-2.8-.3c-.9-.2-1.7-.5-2.5-.8-.8-.4-1.5-.8-2.2-1.2l1.9-3.5c.8.6,1.6,1.1,2.2,1.4Z"/>
    <path class="st5" d="M187.6,23.1v21.9l-15.3-15.1v14h-3.5v-21.9l15.3,15.1v-14h3.5Z"/>
    <path class="st5" d="M194.3,43.4c-1.1-.6-1.9-1.4-2.5-2.5-.6-1.1-.9-2.3-.9-3.8s.3-2.7.9-3.8c.6-1.1,1.4-1.9,2.5-2.5,1.1-.6,2.3-.9,3.8-.9s2.7.3,3.7.8c1,.6,1.8,1.4,2.3,2.4.5,1,.8,2.3.8,3.8s0,.3,0,.5c0,.2,0,.3,0,.4h-12.1v-2.2h9.3l-1,1.4c0-.1.1-.3.2-.5,0-.2.1-.4.1-.5,0-.7-.1-1.4-.4-1.9-.3-.5-.7-1-1.2-1.3-.5-.3-1.1-.4-1.8-.4s-1.5.2-2.1.5c-.6.4-1,.9-1.3,1.6-.3.7-.5,1.5-.5,2.5,0,1,.1,1.8.4,2.5s.8,1.2,1.3,1.6c.6.4,1.3.5,2.1.5s1.7-.2,2.3-.5c.7-.4,1.2-.9,1.6-1.6l2.8,1.1c-.7,1.2-1.7,2.2-2.8,2.8-1.1.6-2.5.9-4.1.9s-2.6-.3-3.7-.9Z"/>
    <path class="st5" d="M210.4,43.4c-1.1-.6-1.9-1.4-2.5-2.5-.6-1.1-.9-2.3-.9-3.8s.3-2.7.9-3.8c.6-1.1,1.4-1.9,2.5-2.5,1.1-.6,2.3-.9,3.8-.9s2.7.3,3.7.8c1,.6,1.8,1.4,2.3,2.4.5,1,.8,2.3.8,3.8s0,.3,0,.5c0,.2,0,.3,0,.4h-12.1v-2.2h9.3l-1,1.4c0-.1.1-.3.2-.5,0-.2.1-.4.1-.5,0-.7-.1-1.4-.4-1.9-.3-.5-.7-1-1.2-1.3-.5-.3-1.1-.4-1.8-.4s-1.5.2-2.1.5c-.6.4-1,.9-1.3,1.6-.3.7-.5,1.5-.5,2.5,0,1,.1,1.8.4,2.5s.8,1.2,1.3,1.6c.6.4,1.3.5,2.1.5s1.7-.2,2.3-.5c.7-.4,1.2-.9,1.6-1.6l2.8,1.1c-.7,1.2-1.7,2.2-2.8,2.8-1.1.6-2.5.9-4.1.9s-2.6-.3-3.7-.9Z"/>
    <path class="st5" d="M224.1,33.3c.6-1.1,1.4-1.9,2.5-2.4,1-.6,2.1-.9,3.3-.9s2.2.3,3,.9,1.6,1.4,2.1,2.5c.5,1.1.8,2.3.8,3.8s-.3,2.7-.8,3.8c-.5,1.1-1.2,1.9-2.1,2.5-.9.6-1.9.9-3,.9s-2.3-.3-3.3-.9c-1-.6-1.8-1.4-2.5-2.5-.6-1.1-.9-2.4-.9-3.8s.3-2.8.9-3.9ZM227.1,39.5c.4.7.9,1.2,1.5,1.5.6.3,1.3.5,2,.5s1.3-.2,1.9-.5c.6-.3,1.1-.8,1.5-1.5.4-.6.6-1.4.6-2.4s-.2-1.7-.6-2.4c-.4-.6-.9-1.1-1.5-1.5-.6-.3-1.2-.5-1.9-.5s-1.4.2-2,.5c-.6.3-1.1.8-1.5,1.5-.4.7-.6,1.4-.6,2.4s.2,1.7.6,2.4ZM237.8,20.7v23.3h-3.3v-23.3h3.3Z"/>
    <path class="st5" d="M244.1,43.4c-1.1-.6-1.9-1.4-2.5-2.5-.6-1.1-.9-2.3-.9-3.8s.3-2.7.9-3.8c.6-1.1,1.4-1.9,2.5-2.5,1.1-.6,2.3-.9,3.8-.9s2.7.3,3.7.8c1,.6,1.8,1.4,2.3,2.4.5,1,.8,2.3.8,3.8s0,.3,0,.5c0,.2,0,.3,0,.4h-12.1v-2.2h9.3l-1,1.4c0-.1.1-.3.2-.5,0-.2.1-.4.1-.5,0-.7-.1-1.4-.4-1.9-.3-.5-.7-1-1.2-1.3-.5-.3-1.1-.4-1.8-.4s-1.5.2-2.1.5c-.6.4-1,.9-1.3,1.6-.3.7-.5,1.5-.5,2.5,0,1,.1,1.8.4,2.5s.8,1.2,1.3,1.6c.6.4,1.3.5,2.1.5s1.7-.2,2.3-.5c.7-.4,1.2-.9,1.6-1.6l2.8,1.1c-.7,1.2-1.7,2.2-2.8,2.8-1.1.6-2.5.9-4.1.9s-2.6-.3-3.7-.9Z"/>
    <path class="st5" d="M257.7,33.3c.6-1.1,1.4-1.9,2.5-2.4,1-.6,2.1-.9,3.3-.9s2.2.3,3,.9,1.6,1.4,2.1,2.5c.5,1.1.8,2.3.8,3.8s-.3,2.7-.8,3.8c-.5,1.1-1.2,1.9-2.1,2.5-.9.6-1.9.9-3,.9s-2.3-.3-3.3-.9c-1-.6-1.8-1.4-2.5-2.5-.6-1.1-.9-2.4-.9-3.8s.3-2.8.9-3.9ZM260.7,39.5c.4.7.9,1.2,1.5,1.5.6.3,1.3.5,2,.5s1.3-.2,1.9-.5c.6-.3,1.1-.8,1.5-1.5.4-.6.6-1.4.6-2.4s-.2-1.7-.6-2.4c-.4-.6-.9-1.1-1.5-1.5-.6-.3-1.2-.5-1.9-.5s-1.4.2-2,.5c-.6.3-1.1.8-1.5,1.5-.4.7-.6,1.4-.6,2.4s.2,1.7.6,2.4ZM271.4,20.7v23.3h-3.3v-23.3h3.3Z"/>
    <path class="st6" d="M275.6,42.9c.2-.2.3-.2.6-.2s.4,0,.6.2c.1.2.2.3.2.6s0,.4-.2.6c-.1.2-.3.2-.6.2s-.4,0-.6-.2c-.2-.2-.2-.3-.2-.6s0-.4.2-.6Z"/>
    <path class="st6" d="M281.5,41.2c.3.6.8,1.1,1.4,1.4s1.2.5,2,.5,1,0,1.5-.2c.5-.2.8-.4,1.2-.6.3-.2.6-.5.7-.8v1.4c-.3.4-.8.6-1.4.9s-1.3.4-2,.4-1.8-.2-2.5-.7-1.3-1-1.8-1.8c-.4-.8-.7-1.6-.7-2.6s.2-1.9.7-2.6c.4-.8,1-1.4,1.8-1.8s1.6-.7,2.5-.7,1.4.1,2,.4c.6.2,1.1.5,1.4.9v1.4c-.1-.3-.4-.5-.7-.8-.3-.2-.7-.4-1.2-.6-.5-.2-.9-.2-1.5-.2s-1.4.2-2,.5c-.6.3-1,.8-1.4,1.4-.3.6-.5,1.3-.5,2.1s.2,1.5.5,2.1Z"/>
    <path class="st6" d="M290.8,36.5c.4-.8,1-1.4,1.8-1.8.8-.4,1.6-.7,2.5-.7s1.8.2,2.5.7c.8.4,1.3,1,1.8,1.8s.7,1.6.7,2.6-.2,1.8-.7,2.6-1,1.4-1.8,1.8c-.8.4-1.6.7-2.5.7s-1.8-.2-2.5-.7c-.8-.4-1.4-1-1.8-1.8s-.7-1.6-.7-2.6.2-1.9.7-2.6ZM291.8,41.2c.3.6.8,1.1,1.4,1.4s1.2.5,2,.5,1.4-.2,2-.5,1-.8,1.4-1.4c.3-.6.5-1.3.5-2.1s-.2-1.5-.5-2.1-.8-1.1-1.4-1.4c-.6-.3-1.2-.5-2-.5s-1.4.2-2,.5c-.6.3-1,.8-1.4,1.4-.3.6-.5,1.3-.5,2.1s.2,1.5.5,2.1Z"/>
    <path class="st6" d="M315,44h-1.1v-6.3c0-.8-.2-1.5-.5-2-.3-.5-.8-.7-1.5-.7s-.9.1-1.3.4c-.4.3-.7.6-.9,1.1-.2.5-.3,1-.3,1.5v5.9h-1.1v-6.3c0-.8-.2-1.5-.5-2-.3-.5-.8-.7-1.5-.7s-.9.1-1.3.4c-.4.3-.7.6-.9,1.1-.2.5-.3,1-.3,1.5v5.9h-1.1v-9.7h1.1v2c.3-.7.6-1.2,1.1-1.6.5-.4,1.1-.6,1.7-.6s1.3.2,1.7.6c.5.4.8.9.9,1.6.3-.7.7-1.3,1.2-1.6.5-.4,1.1-.6,1.8-.6s1.1.1,1.5.4c.4.3.7.7,1,1.2.2.5.3,1.2.3,1.9v6.4Z"/>
  </g>
  <g>
    <polygon class="st0" points="38.8 72 34 45.4 8.3 36 13.2 63 38.8 72"/>
    <polygon class="st4" points="34 45.4 54.4 27.6 59.2 54.5 38.8 72 34 45.4"/>
    <polygon class="st2" points="54.4 27.6 29.1 18.6 34 45.4 54.4 27.6"/>
    <polygon class="st1" points="29.1 18.6 8.3 36 34 45.4 29.1 18.6"/>
    <polygon class="st8" points="8.3 36 1.2 23.7 21.9 6 29.1 18.6 8.3 36"/>
    <polygon class="st0" points="29.1 18.6 36.2 6.4 61.7 15.5 54.4 27.6 29.1 18.6"/>
    <polygon class="st8" points="54.4 27.8 61.6 40.3 40.8 57.7 34 45.3 54.4 27.8"/>
    <polygon class="st8" points="34 45.3 26.4 57.5 1 48.4 8.3 36.3 34 45.3"/>
    <polygon class="st7" points="24 58.5 13.8 54.9 15.1 62 25.3 65.6 24 58.5"/>
    <polygon class="st5" points="56.3 50.5 57 54.1 51.5 58.8 50.8 55.2 56.3 50.5"/>
    <polygon class="st5" points="49.8 56 50.5 59.5 44.9 64.2 44.3 60.7 49.8 56"/>
    <g class="st9">
      <image width="512" height="419" transform="translate(15.4 57.2) scale(0)" xlink:href="logo-1.png"/>
    </g>
  </g>
</svg>