<?xml version="1.0" encoding="UTF-8"?>
<svg id="Layer_1" xmlns="http://www.w3.org/2000/svg" version="1.1" viewBox="0 0 100 100">
  <!-- Generator: Adobe Illustrator 29.2.0, SVG Export Plug-In . SVG Version: 2.1.0 Build 108)  -->
  <defs>
    <style>
      .st0 {
        fill: #231f20;
        isolation: isolate;
        opacity: .1;
      }

      .st1 {
        fill: #3f3f3f;
      }

      .st2 {
        fill: #9b9b9b;
      }

      .st3 {
        fill: #4c4c4c;
      }

      .st4 {
        fill: #666;
      }

      .st5 {
        fill: #939393;
      }

      .st6 {
        fill: #14b8a6;
      }

      .st7 {
        fill: #c1c1c1;
      }

      .st8 {
        fill: #aaa;
      }

      .st9 {
        fill: #565656;
      }

      .st10 {
        fill: #d1d1d1;
      }
    </style>
  </defs>
  <polygon class="st0" points="9.4 71 50.2 47.7 91.3 71 50.2 95 9.4 71"/>
  <polygon class="st7" points="15.7 68 15.7 38.1 50 57.8 50 87.4 15.7 68"/>
  <polygon class="st8" points="50 57.8 84.4 38.1 84.4 67.7 50 87.4 50 57.8"/>
  <polygon class="st9" points="15.7 38.1 50 18.3 50 57.8 15.7 38.1"/>
  <polygon class="st4" points="84.4 38.1 50 18.3 50 57.8 84.4 38.1"/>
  <polygon class="st3" points="44.9 54.9 49.9 51.7 55.1 54.9 50 57.8 44.9 54.9"/>
  <polygon class="st10" points="50 57.8 59.9 33.3 24.3 13.4 15.7 38.1 50 57.8"/>
  <polygon class="st5" points="84.4 38.1 74.4 25.4 37.8 4.1 50 18.3 84.4 38.1"/>
  <polygon class="st6" points="18.7 54.1 18.7 63.5 30.8 70.4 30.8 61.1 18.7 54.1"/>
  <path class="st1" d="M45.8,80.6l-9.9-5.7v-7.8l9.9,5.7s0,7.8,0,7.8ZM36.1,74.7l9.3,5.4v-7.1l-9.3-5.4v7.1Z"/>
  <polygon class="st2" points="15.7 68 15.7 71.2 50 90.9 50 87.4 15.7 68"/>
  <polygon class="st2" points="84.4 67.7 84.4 70.8 50 90.9 50 87.4 84.4 67.7"/>
</svg>