<?xml version="1.0" encoding="UTF-8"?>
<svg id="Layer_1" xmlns="http://www.w3.org/2000/svg" version="1.1" viewBox="0 0 100 100">
  <!-- Generator: Adobe Illustrator 29.2.0, SVG Export Plug-In . SVG Version: 2.1.0 Build 108)  -->
  <defs>
    <style>
      .st0 {
        fill: #231f20;
        isolation: isolate;
        opacity: .1;
      }

      .st1 {
        fill: #3f3f3f;
      }

      .st2 {
        fill: #9b9b9b;
      }

      .st3 {
        fill: #666;
      }

      .st4 {
        fill: #14b8a6;
      }

      .st5 {
        fill: #c1c1c1;
      }

      .st6 {
        fill: #aaa;
      }

      .st7 {
        fill: #565656;
      }

      .st8 {
        fill: #d1d1d1;
      }
    </style>
  </defs>
  <polygon class="st0" points="9.4 71 50.2 47.7 91.3 71 50.2 95 9.4 71"/>
  <polygon class="st5" points="50.1 91 50.1 51.8 15.7 32 15.7 71.3 50.1 91"/>
  <polygon class="st6" points="50.1 91 50.1 51.8 84.4 32 84.4 71.3 50.1 91"/>
  <polygon class="st2" points="84.4 32 50.1 12.2 15.7 32 50.1 51.8 84.4 32"/>
  <polygon class="st3" points="80.7 32 50.1 14.3 19.5 32 50.1 49.6 80.7 32"/>
  <polygon class="st7" points="50.1 14.3 50.1 49.6 80.7 32 50.1 14.3"/>
  <polygon class="st8" points="15.7 32 33.8 32 74.1 9 50.1 12.2 15.7 32"/>
  <polyline class="st8" points="50.1 51.8 39.4 34.6 75.4 13.5 84.4 32"/>
  <polygon class="st4" points="82.4 56.6 82.4 64.5 68.8 72.4 68.8 64.5 82.4 56.6"/>
  <path class="st1" d="M52.2,59.8l11.6-6.7v6.7l-11.6,6.8v-6.8ZM63.7,53.4l-11.2,6.5v6.4l11.2-6.6v-6.3Z"/>
  <path class="st1" d="M52.2,68l11.6-6.7v6.8l-11.6,6.8v-6.8ZM63.7,61.6l-11.2,6.5v6.4l11.2-6.6v-6.3Z"/>
  <polygon class="st2" points="15.7 68 15.7 71.2 50 90.9 50 87.4 15.7 68"/>
  <polygon class="st2" points="84.4 67.7 84.4 70.8 50 90.9 50 87.4 84.4 67.7"/>
</svg>