<?xml version="1.0" encoding="UTF-8"?>
<svg id="Layer_1" xmlns="http://www.w3.org/2000/svg" version="1.1" viewBox="0 0 100 100">
  <!-- Generator: Adobe Illustrator 29.2.0, SVG Export Plug-In . SVG Version: 2.1.0 Build 108)  -->
  <defs>
    <style>
      .st0 {
        fill: #d81a1a;
      }

      .st1 {
        fill: #231f20;
        isolation: isolate;
        opacity: .1;
      }

      .st2 {
        fill: #ba0000;
      }

      .st3 {
        fill: #14b8a6;
      }

      .st4 {
        fill: #c1c1c1;
      }

      .st5 {
        fill: #aaa;
      }

      .st6 {
        fill: #d1d1d1;
      }
    </style>
  </defs>
  <polygon class="st1" points="9.4 71 50.2 47.7 91.3 71 50.2 95 9.4 71"/>
  <polygon class="st5" points="84.3 71.4 84.3 31.7 50 51.6 50 91.1 84.3 71.4"/>
  <polygon class="st4" points="15.7 71.4 15.7 31.7 50 51.6 50 91.1 15.7 71.4"/>
  <polygon class="st6" points="84.3 31.7 50 11.8 15.7 31.7 50 51.6 84.3 31.7"/>
  <polygon class="st0" points="70.2 23.5 64.1 20 29.8 39.9 35.8 43.3 70.2 23.5"/>
  <polygon class="st2" points="35.8 43.3 35.8 59.2 29.8 55.6 29.8 39.9 35.8 43.3"/>
  <polygon class="st3" points="67.3 46.7 67.3 54.6 53.7 62.5 53.7 54.6 67.3 46.7"/>
</svg>