<?xml version="1.0" encoding="UTF-8"?>
<svg id="Layer_1" xmlns="http://www.w3.org/2000/svg" version="1.1" viewBox="0 0 100 100">
  <!-- Generator: Adobe Illustrator 29.2.0, SVG Export Plug-In . SVG Version: 2.1.0 Build 108)  -->
  <defs>
    <style>
      .st0 {
        fill: #fbca78;
      }

      .st1 {
        fill: #231f20;
        opacity: .1;
      }

      .st1, .st2 {
        isolation: isolate;
      }

      .st3 {
        fill: #1a4277;
      }

      .st4 {
        fill: #28649f;
      }

      .st5 {
        fill: #165395;
      }

      .st6 {
        fill: #f9b143;
      }

      .st7 {
        fill: #193660;
      }
    </style>
  </defs>
  <path class="st1" d="M39.5,85.9c5.6-3.2,14.7-3.2,20.2,0,5.6,3.2,5.6,8.5,0,11.7-5.6,3.2-14.7,3.2-20.2,0-5.6-3.2-5.6-8.5,0-11.7Z"/>
  <path class="st7" d="M62,70.8c0-.4,0-.9-.2-1.3h0c0-.2-.2-.4-.3-.6h0c0,0,0-.2-.2-.3,0-.2-.2-.4-.4-.5h0c-.2-.2-.3-.4-.5-.6h0c-.3-.3-.7-.6-1.1-.9-.2,0-.4-.3-.6-.4-.3-.2-.6-.3-.9-.5-1.6-.7-3.4-1.2-5.3-1.4-.8,0-1.5,0-2.3,0-3.1,0-6.1.7-8.5,2-.8.5-1.5,1-2,1.6h0q0,0,0,.2s0,0,0,.2h0c0,0,0,.2,0,.3h0s0,.2-.2.3h0c-.4.7-.6,1.5-.6,2.3h0v9.5h0v.3h0v.3c0,4.3,2.3,8.3,6,10.4s8.3,2.1,11.9,0h0c3.7-2.1,5.9-6.1,5.9-10.3v-.2h0v-9.8l-.3-.5Z"/>
  <path class="st6" d="M82,32C82,14.3,67.7,0,50,0S18,14.3,18,32s8.3,25,20.1,29.7v9c0,1.8,1.1,3.6,3.5,5,4.7,2.7,12.3,2.7,16.9,0,2.4-1.4,3.5-3.2,3.5-5v-9c11.7-4.8,20-16.3,20-29.7Z"/>
  <g>
    <path class="st0" d="M70.1,44.9h0c-1-1.3-.6-3.7.4-5.7,2.7-5.1,2.4-11.3-.2-15.5-1-1.7-1.3-3.9-.5-5.6h0c.8-1.7,3.1-1.8,4.9.7,4.2,6,5.1,15.5,1,23.2-1.7,3.2-4.6,4.2-5.6,2.9Z"/>
    <path class="st0" d="M66.3,9.4c2.8.5,4.6,3.6,3.7,5.5-.8,1.9-2.9,2.3-4.7,1.8-1.8-.6-3.1-1.9-3.3-3.8-.2-1.8,1.4-4,4.2-3.5h0Z"/>
  </g>
  <path class="st0" d="M61.8,69.5c0-.2-.2-.4-.3-.6h0c0,0,0-.2-.2-.3,0-.2-.2-.4-.4-.5h0c-.2-.2-.3-.4-.5-.6h0c-.3-.3-.7-.6-1.1-.9-.2,0-.4-.3-.6-.4-.3-.2-.6-.3-.9-.5-1.6-.7-3.4-1.2-5.3-1.4-.8,0-1.5,0-2.3,0-3.1,0-6.1.7-8.5,2-.8.5-1.5,1-2,1.6h0q0,0,0,.2s0,0,0,.2h0c0,0,0,.2,0,.3h0s0,.2-.2.3h0c-.4.7-.6,1.4-.6,2.2h0c0,1.8,1.1,3.6,3.5,5,4.7,2.7,12.3,2.7,16.9,0,2.4-1.4,3.5-3.2,3.5-5h0c0-.5,0-.8-.2-1.2h0l-.4-.3Z"/>
  <g class="st2">
    <polygon class="st3" points="41 37.5 42.6 36.8 48.5 69.7 46.9 70.4 41 37.5"/>
    <g>
      <path class="st3" d="M41.9,36.2h0v.2h0s0,.2,0,.3v.2h0q0,0,0,.2h0c0,0,1.6-.6,1.6-.6h0v-.2h0v-.2s0-.2,0-.3v-.2h0q0,0,0,0h0l-1.6.7h0Z"/>
      <path class="st3" d="M44.8,37.2h0c0,0,0,.3,0,.3,0,0,0,.2,0,.2h0c0,0,1.6-.6,1.6-.6h0c0,0,0-.3,0-.3,0,0,0-.2,0-.2h0c0,0-1.6.6-1.6.6h0Z"/>
      <path class="st3" d="M47.9,38.2h0c0,0,0,.3,0,.3,0,0,0,.2,0,.2h0c0,0,1.6-.6,1.6-.6h0c0,0,0-.3,0-.3,0,0,0-.2,0-.2h0c0,0-1.6.6-1.6.6Z"/>
      <path class="st3" d="M50.8,39.3h0c0,0,0,.3,0,.3,0,0,0,.2,0,.2h0c0,0,1.6-.6,1.6-.6h0c0,0,0-.3,0-.3,0,0,0-.2,0-.2h0c0,0-1.6.6-1.6.6h0Z"/>
      <path class="st3" d="M53.7,40.3h0c0,0,0,.3,0,.3,0,0,0,.2,0,.2h0c0,0,1.6-.6,1.6-.6h0c0,0,0-.3,0-.3,0,0,0-.2,0-.2h0c0,0-1.6.6-1.6.6h0Z"/>
      <path class="st3" d="M56.8,41.3h0c0,0,0,.3,0,.3,0,0,0,.2,0,.2h0c0,0,1.6-.6,1.6-.6h0c0,0,0-.3,0-.3,0,0,0-.2,0-.2h0c0,0-1.6.6-1.6.6Z"/>
    </g>
    <g>
      <path class="st4" d="M54.4,38.9h-.2v-.3h0v-.4h0v-.2h0l-1.6.7h.2v.3h0v.4h0v.2h0l1.6-.7h0Z"/>
      <path class="st4" d="M42.4,34.8h-.3q0,0,0-.2h0s0-.2-.2-.3h0c0,0,0-.2-.2-.3,0,0,0-.2-.2-.3h0c0,0,0-.2-.2-.3h0l-1.6.7h.2q0,0,0,.2h0s0,.2.2.3h0c0,0,0,.2.2.3,0,0,0,.2.2.3h0c0,0,0,.2.2.3h0l1.6-.7h0,.2Z"/>
      <path class="st4" d="M45.4,35.8h-.3v-.3h0v-.4h0v-.2h0l-1.6.7h.4v.3h0v.4h0v.2h0l1.6-.7h0Z"/>
      <path class="st4" d="M48.5,36.8h-.2v-.3h0v-.4h0v-.2h0l-1.6.7h.2v.3h0v.4h0v.2h0c0,0,1.6-.6,1.6-.6h0Z"/>
      <path class="st4" d="M51.4,37.9h-.3v-.3h0v-.4h0v-.2h0l-1.6.7h.2v.3h0v.4h0v.2h0l1.6-.7h0,.2Z"/>
      <path class="st4" d="M57.3,39.9h-.3v-.3h0v-.4h0v-.2h0l-1.6.7h.2v.3h0v.4h0v.2h0l1.6-.7h0,.2Z"/>
      <path class="st4" d="M60.4,40.9h0v-.3h0c0-.2,0-.3-.2-.5,0-.2,0-.3-.2-.5h0v-.2s0,0,0-.2h0l-1.6.7h.2q0,0,0,.2s0,0,0,.2v.2h0c0,.2,0,.3.2.5,0,.2,0,.3.2.5h0v.2h0c0,0,1.6-.6,1.6-.6h0l-.3-.2Z"/>
    </g>
    <path class="st5" d="M58.6,41.6c.7.3,1.1-1.5,1.9-1.2l-.4,1.9-6,30.5-1.5-.5,5.7-28.9c-.4-.5-.5-1.6-1-2h0c-.7-.2-.7,1.6-1.5,1.4-.8-.3-.8-2.1-1.5-2.4-.7-.2-.7,1.6-1.5,1.4-.8-.3-.8-2.1-1.5-2.4-.7-.2-.7,1.6-1.5,1.4-.8-.3-.8-2.1-1.5-2.4-.7-.2-.7,1.6-1.5,1.4-.8-.3-.8-2.1-1.5-2.4-.7-.2-.7,1.6-1.5,1.4-.8-.3-.8-2.1-1.5-2.4h0c-.4,0-.6,1.1-1,1.3l5.9,32.9-1.5-.5-6.3-34.8-.4-2.2c.7.3,1.1,2.3,1.9,2.5.5.2.7-.7,1-1.2,0-.2.3-.3.5-.2.7.3.8,2.1,1.5,2.4.7.3.7-1.6,1.5-1.4.7.3.8,2.1,1.5,2.4.7.2.7-1.6,1.5-1.4.7.3.8,2.1,1.5,2.4.7.2.7-1.6,1.5-1.4.7.3.8,2.1,1.5,2.4.7.2.7-1.6,1.5-1.4.7.3.8,2.1,1.5,2.4.7.3.7-1.6,1.5-1.4.2,0,.4.3.5.5.3.7.5,1.7,1,1.9h-.1Z"/>
    <path class="st3" d="M62,39.7h0l-1.6.7h.4l-.4,1.9-6,30.5,1.6-.7,6-30.5.4-1.9h-.4Z"/>
  </g>
</svg>