<?xml version="1.0" encoding="UTF-8"?>
<svg id="Layer_1" xmlns="http://www.w3.org/2000/svg" version="1.1" viewBox="0 0 100 100">
  <!-- Generator: Adobe Illustrator 29.2.0, SVG Export Plug-In . SVG Version: 2.1.0 Build 108)  -->
  <defs>
    <style>
      .st0 {
        fill: #142323;
      }

      .st1 {
        fill: #32545c;
      }

      .st2 {
        fill: #233c40;
      }

      .st3 {
        fill: #231f20;
      }

      .st4 {
        fill: #1bb6a5;
      }

      .st5 {
        fill: #172728;
      }

      .st6 {
        fill: #c4c4c4;
      }

      .st7 {
        opacity: .1;
      }

      .st8 {
        fill: #1d3234;
      }

      .st9 {
        fill: #2a454a;
      }

      .st10 {
        fill: #f7f7f7;
      }
    </style>
  </defs>
  <g class="st7">
    <polygon class="st3" points="0 44.4 60 79.1 100 55.9 39.8 21.4 0 44.4"/>
  </g>
  <g>
    <polygon class="st2" points="5.9 44 60.2 75.4 96.3 54.4 41.9 23.2 5.9 44"/>
    <polygon class="st1" points="5.9 41.7 60.2 73.1 96.3 52.1 41.9 20.9 5.9 41.7"/>
    <polygon class="st10" points="10.8 42.2 59.2 70.3 91.4 51.6 42.9 23.7 10.8 42.2"/>
    <polygon class="st2" points="96.3 52.1 96.3 54.4 60.2 75.4 60.2 73.1 96.3 52.1"/>
    <polygon class="st5" points="5.9 44 5.9 41.7 60.2 73.1 60.2 75.4 5.9 44"/>
    <g>
      <polygon class="st9" points="14.9 34.7 20.2 37.8 36.5 28.4 31.1 25.2 14.9 34.7"/>
      <polygon class="st8" points="20.2 38.4 20.2 37.8 36.5 28.4 36.5 29 20.2 38.4"/>
      <polygon class="st0" points="20.2 38.4 20.2 37.8 14.9 34.7 14.9 35.3 20.2 38.4"/>
    </g>
    <polygon class="st8" points="14.9 35.3 14.9 36.5 15.9 35.9 14.9 35.3"/>
    <g>
      <g>
        <polygon class="st6" points="24 42.4 46.2 29.1 45.6 28.8 23.4 42.1 24 42.4"/>
        <polygon class="st6" points="26.1 43.8 48.3 30.4 47.8 30.1 25.5 43.4 26.1 43.8"/>
      </g>
      <g>
        <polygon class="st6" points="28.6 45.1 50.8 31.8 50.2 31.5 28 44.8 28.6 45.1"/>
        <polygon class="st6" points="30.7 46.5 52.9 33.2 52.4 32.8 30.1 46.1 30.7 46.5"/>
      </g>
      <g>
        <polygon class="st6" points="33.3 47.9 55.5 34.6 55 34.3 32.7 47.6 33.3 47.9"/>
        <polygon class="st6" points="35.5 49.3 57.7 36 57.1 35.6 34.9 49 35.5 49.3"/>
      </g>
      <g>
        <polygon class="st6" points="37.9 50.7 60.1 37.3 59.6 37 37.3 50.3 37.9 50.7"/>
        <polygon class="st6" points="40 52 62.3 38.7 61.7 38.3 39.5 51.7 40 52"/>
      </g>
    </g>
    <g>
      <g>
        <polygon class="st6" points="42.7 53.3 64.9 40 64.3 39.6 42.1 53 42.7 53.3"/>
        <polygon class="st6" points="44.8 54.7 67 41.3 66.5 41 44.2 54.3 44.8 54.7"/>
      </g>
      <g>
        <polygon class="st6" points="47.2 56 69.5 42.7 68.9 42.3 46.7 55.7 47.2 56"/>
        <polygon class="st6" points="49.4 57.4 71.6 44 71.1 43.7 48.8 57 49.4 57.4"/>
      </g>
      <g>
        <polygon class="st6" points="52 58.8 74.2 45.5 73.7 45.1 51.4 58.5 52 58.8"/>
        <polygon class="st6" points="54.1 60.2 76.4 46.8 75.8 46.5 53.6 59.8 54.1 60.2"/>
      </g>
      <g>
        <polygon class="st6" points="56.6 61.5 78.8 48.2 78.3 47.9 56 61.2 56.6 61.5"/>
        <polygon class="st6" points="58.7 62.9 81 49.6 80.4 49.2 58.2 62.5 58.7 62.9"/>
      </g>
    </g>
    <path class="st4" d="M23.7,46.9h0l-2.8-.2c-.2,0-.3-.2-.3-.4s.2-.3.4-.3l2.3.2-.9-2.9c0-.2,0-.4.2-.4s.4,0,.4.2l1.1,3.4v.3s-.2,0-.3,0h-.1Z"/>
    <path class="st4" d="M29.8,50.2h0l-2.8-.2c-.2,0-.3-.2-.3-.4s.2-.3.4-.3l2.3.2-.9-2.9c0-.2,0-.4.2-.4s.4,0,.4.2l1.1,3.4v.3s-.2,0-.3,0h-.1Z"/>
    <path class="st4" d="M35.3,53.4h0l-2.8-.2c-.2,0-.3-.2-.3-.4s.2-.3.4-.3l2.3.2-.9-2.9c0-.2,0-.4.2-.4s.4,0,.4.2l1.1,3.4v.3s-.2,0-.3,0h-.1Z"/>
    <path class="st4" d="M41.4,56.8h0l-2.8-.2c-.2,0-.3-.2-.3-.4s.2-.3.4-.3l2.3.2-.9-2.9c0-.2,0-.4.2-.4s.4,0,.4.2l1.1,3.4v.3s-.2,0-.3,0h-.1Z"/>
    <path class="st4" d="M47.1,60.2h0l-2.8-.2c-.2,0-.3-.2-.3-.4s.2-.3.4-.3l2.3.2-.9-2.9c0-.2,0-.4.2-.4s.4,0,.4.2l1.1,3.4v.3s-.2,0-.3,0h-.1Z"/>
    <path class="st4" d="M53.2,63.6h0l-2.8-.2c-.2,0-.3-.2-.3-.4s.2-.3.4-.3l2.3.2-.9-2.9c0-.2,0-.4.2-.4s.4,0,.4.2l1.1,3.4v.3s-.2,0-.3,0h-.1Z"/>
  </g>
</svg>