<?xml version="1.0" encoding="UTF-8"?>
<svg id="Layer_1" xmlns="http://www.w3.org/2000/svg" version="1.1" viewBox="0 0 100 100">
  <!-- Generator: Adobe Illustrator 29.2.0, SVG Export Plug-In . SVG Version: 2.1.0 Build 108)  -->
  <defs>
    <style>
      .st0 {
        fill: #ffe385;
      }

      .st1 {
        fill: #ff7575;
      }

      .st2 {
        fill: #fff;
      }

      .st3 {
        fill: #ffc571;
      }

      .st4 {
        fill: #f78f8f;
      }

      .st5 {
        fill: #f4665c;
      }

      .st6 {
        fill: #707cc0;
      }
    </style>
  </defs>
  <rect class="st1" x="-20" y="-1.2" width="140" height="101.3"/>
  <rect class="st3" x="-20" y="24.6" width="140" height="49.7"/>
  <g>
    <path class="st2" d="M35.2,42h-3.7v25.8h3.7v-25.8ZM68.4,42h-3.7v25.8h3.7v-25.8Z"/>
    <path class="st5" d="M50,31c-1,0-1.8.8-1.8,1.8s.8,1.8,1.8,1.8,1.8-.8,1.8-1.8-.8-1.8-1.8-1.8h0Z"/>
    <path class="st5" d="M52.8,36.5c.5,0,.9.4.9.9s-.4.9-.9.9-.9-.4-.9-.9.4-.9.9-.9M52.8,34.7c-1.5,0-2.8,1.2-2.8,2.8s1.2,2.8,2.8,2.8,2.8-1.2,2.8-2.8-1.2-2.8-2.8-2.8h0Z"/>
    <path class="st5" d="M56.5,36.5c.5,0,.9.4.9.9s-.4.9-.9.9-.9-.4-.9-.9.4-.9.9-.9M56.5,34.7c-1.5,0-2.8,1.2-2.8,2.8s1.2,2.8,2.8,2.8,2.8-1.2,2.8-2.8-1.2-2.8-2.8-2.8h0ZM47.2,36.5c.5,0,.9.4.9.9s-.4.9-.9.9-.9-.4-.9-.9.4-.9.9-.9M47.2,34.7c-1.5,0-2.8,1.2-2.8,2.8s1.2,2.8,2.8,2.8,2.8-1.2,2.8-2.8-1.2-2.8-2.8-2.8h0Z"/>
    <path class="st5" d="M43.5,36.5c.5,0,.9.4.9.9s-.4.9-.9.9-.9-.4-.9-.9.4-.9.9-.9M43.5,34.7c-1.5,0-2.8,1.2-2.8,2.8s1.2,2.8,2.8,2.8,2.8-1.2,2.8-2.8-1.2-2.8-2.8-2.8h0Z"/>
    <path class="st5" d="M50,42h-11.1v12.9h11.1v-12.9h0Z"/>
    <path class="st2" d="M61,42h-11.1v12.9h11.1v-12.9h0Z"/>
    <path class="st5" d="M61,54.9h-11.1v13c11.2,0,11.1-7.5,11.1-7.5v-5.5h0Z"/>
    <path class="st0" d="M50,54.9h-11.1v5.5s-.2,7.5,11,7.5,0,0,0,0v-13h0Z"/>
    <path class="st4" d="M33.4,39.3c-.5,0-.9.4-.9.9s.4.9.9.9.9-.4.9-.9-.4-.9-.9-.9Z"/>
    <path class="st5" d="M33.4,38.4c-1,0-1.8.8-1.8,1.8s.8,1.8,1.8,1.8,1.8-.8,1.8-1.8-.8-1.8-1.8-1.8h0Z"/>
    <path class="st4" d="M66.6,39.3c-.5,0-.9.4-.9.9s.4.9.9.9.9-.4.9-.9-.4-.9-.9-.9Z"/>
    <path class="st5" d="M66.6,38.4c-1,0-1.8.8-1.8,1.8s.8,1.8,1.8,1.8,1.8-.8,1.8-1.8-.8-1.8-1.8-1.8h0Z"/>
    <path class="st6" d="M50,51.3c-2.1,0-3.7,1.9-3.7,4.6s1.5,4.6,3.7,4.6,3.7-1.9,3.7-4.6-1.5-4.6-3.7-4.6h0Z"/>
    <polygon class="st5" points="44.5 42.1 55.6 42.1 57.4 40 53.7 38.4 51.8 38.4 50 37.4 48.2 38.4 42.6 40 44.5 42.1"/>
    <rect class="st6" x="29.7" y="64.2" width="7.4" height="3.7"/>
    <rect class="st6" x="62.9" y="64.2" width="7.4" height="3.7"/>
  </g>
</svg>